# xmcd
#
# Track frame offsets: 
#        150
#        23513
#        79785
#        103088
#        136063
#        164105
#        185050
#        198625
#
# Disc length: 3042 seconds
#
# Revision: 1
# Processed by: cddbd v1.5PL3 Copyright (c) Steve Scherf et al.
# Submitted via: ExactAudioCopy v0.95a5
#
DISCID=6a0be008
DTITLE=Blues Traveler - Jones for the Blues [CD2]
DYEAR=1994
DGENRE=Rock
TTITLE0=Brother John
TTITLE1=What's For Breakfast
TTITLE2=Mountain Cry
TTITLE3=Mullin' It Over
TTITLE4=Stand
TTITLE5=Run Around
TTITLE6=Crash Burn
TTITLE7=Rock Me Baby Face
EXTD=Recorded Live At the Jones Beach Amphitheater\nLong Island, NY 07
EXTD=/31/94\n\nTracks 4-8 Bonus tracks recorded live at The House Of B
EXTD=lues, New Orleans, LA 1994
EXTT0=
EXTT1=
EXTT2=
EXTT3=
EXTT4=
EXTT5=
EXTT6=
EXTT7=
PLAYORDER=
